<svg id="Layer_1" data-name="Layer 1" xmlns="http://www.w3.org/2000/svg" viewBox="0 0 1723.62 275.77"><defs><style>.cls-1{fill:#a19585;}</style></defs><polygon class="cls-1" points="55.97 64.01 169.65 64.01 186.77 34.37 25.52 34.37 25.52 224.71 55.97 224.71 55.97 145.33 125.24 145.36 141.56 117.08 55.97 117.05 55.97 64.01"/><polygon class="cls-1" points="505.74 34.37 420.6 116.49 420.6 34.37 390.15 34.37 390.15 224.71 420.6 224.71 420.6 137.97 505.44 224.71 543.51 224.71 448.61 126.28 543.53 34.37 505.74 34.37"/><polygon class="cls-1" points="141.6 224.71 176.4 224.71 251.49 94.65 326.58 224.71 361.38 224.71 251.49 34.37 141.6 224.71"/><path class="cls-1" d="M1086.59,34.64h-30.18V145.86c0,36.16-22.3,56-52.76,54.38-28.27-1.09-48.4-19.85-48.4-54.38V34.64H925.07V145.86c0,54.1,36.17,81.3,78.58,82.38,46,1.64,82.94-26.37,82.94-82.38Z"/><rect class="cls-1" x="1458.63" y="34.37" width="30.18" height="190.34"/><polygon class="cls-1" points="1648.91 34.37 1648.91 169.78 1540.96 34.37 1517.58 34.37 1517.58 224.71 1548.31 224.71 1548.31 90.39 1656.26 224.71 1679.37 224.71 1679.37 34.37 1648.91 34.37"/><path class="cls-1" d="M1334.39,34.37h-60.55v.23a99.54,99.54,0,0,1,19.8,17A103.39,103.39,0,0,1,1304,65.49v-2h30.36c44.87,0,64.45,32.08,65.26,64.17.82,33.44-18.76,67.7-65.26,67.7H1304V194a101.63,101.63,0,0,1-13.14,16.68,99.89,99.89,0,0,1-17.05,14v.08h60.55c66.62,0,96.53-48.67,95.45-96.8C1429,80.87,1399.38,34.37,1334.39,34.37Z"/><path class="cls-1" d="M1282.85,127.91c-.81-47-30.45-93.54-95.44-93.54h-72.06V224.71h72.06C1254,224.71,1283.94,176,1282.85,127.91Zm-95.44,67.43h-41.87V63.47h41.87c44.87,0,64.44,32.08,65.26,64.17C1253.49,161.08,1233.91,195.34,1187.41,195.34Z"/><path class="cls-1" d="M836.21,156c37.53-5.43,51.67-32,51.67-59.19,0-32-23.11-62.18-67.16-62.18-19.46,0-38.82-.1-58.19-.18V62.33h58.19c25,0,36.16,17.92,36.16,35,0,17.92-11.15,33.94-36.44,33.94H781.32l79.37,93.41h35.62Z"/><path class="cls-1" d="M703.33,34.37V117.3H602.73V34.37H572.27V224.71h30.46V145.58h100.6v79.13h30.46V34.46C723.65,34.42,713.52,34.37,703.33,34.37Z"/></svg>